<svg xmlns="http://www.w3.org/2000/svg" id="Capa_2" viewBox="0 0 257.3 248.7"><defs><style> .st0 { fill: #6c7563; } </style></defs><g id="objects"><g><path class="st0" d="M144.7,14.9c-.3.3-.7.5-1.1.7-.4.2-.7.3-.9.3-1,0-1.7-.3-2.3-.8-.6-.6-1.4-1.8-2.2-3.7V2.5c0-.4.1-.7.4-1,.2-.2.6-.5,1.6-.7l3.5-.8h-10.2l1.9.7c.4.2.8.4,1.2.7.3.2.4.5.4,1v6.3l-2.7-5.6c-.8-1.1-1.4-1.9-1.8-2.4-.5-.6-1.4-.9-2.9-.9s-3.4.4-4.5,1.2c-1.1.8-1.6,2.1-1.6,3.9s.4,2.3,1.1,3.2c.7.9,1.9,1.4,3.4,1.4h1.6v1.8c0,.4-.1.7-.3,1-.2.2-.6.4-1.6.7l-3.5.8h10.1l-1.8-.7c-.5-.2-.9-.4-1.2-.7-.3-.2-.4-.5-.4-.9V3c.7.9,1.5,2.5,2.5,4.6,1.4,3,2.7,5.3,3.9,6.9,1.2,1.7,2.8,2.6,4.8,2.6s1.6-.2,2.1-.5c.5-.3.9-.7,1.2-1.2l1.9-2.6-2.4,2.1h0ZM129.5,9.6l-1.5-.7c-.9-.4-1.7-1-2.2-1.7-.5-.6-.8-1.6-.8-2.8s.2-1.8.7-2.4c.5-.6,1.2-.9,2.3-.9s.7,0,.9.1c.2,0,.3.2.5.4v7.9h0Z"></path><path class="st0" d="M24.8,115.5H5.3c-1.4,0-2.7.4-3.7,1.3C.5,117.7,0,119,0,120.6s.5,2.5,1.4,3.1c1.8,1.3,3.6,1.2,4.7.3.6-.5.8-1.1.8-1.7s-.2-.9-.6-1.2l-1.5-1.1,1,1.6c0,.2.1.3.1.5,0,.3-.2.7-.5,1-.3.3-.7.5-1.1.5-.7,0-1.3-.3-1.7-1.1-.5-.8-.7-1.6-.7-2.5s.3-1.9.8-2.4c.5-.5,1.1-.8,1.8-.8s.5.1.8.4c.2.2.5.8,1.1,2.2l3.1,8c.8,2,1,2.6,1.1,2.8l.4,1.1,3.2-9.4,3.6,9.3,4.2-12.6c.2-.4.5-.9,1.1-1.4.5-.5,1.2-.8,2-.9v-.8c0,0,0,0,0,0ZM12.6,122c-.3,1-.6,1.8-.8,2.3,0,.2-.1.3-.2.5l-3.1-7.9h0c0-.2.4-.4.5-.4.5-.1.9-.2,1.1-.3v-.5s.7.4.7.4c.8.4,1.2.9,1.4,1.3.2.5.6,1.3,1,2.5l-.7,2h0ZM20.2,118.9c0,.2-.2.6-.6,2.1-.3,1-.7,2.2-1.2,3.7l-3-7.5c0,0,0-.1,0-.2,0,0,0-.3,1.5-.7l.6-.2.6.2c.7.2,1.2.5,1.7.8.4.3.6.7.6,1.2s0,.3,0,.5Z"></path><path class="st0" d="M254.1,128.6c-.9.5-1.9.8-3,.8s-1.8-.2-1.9-.2c0,0-.3-.3-.3-1.5s.5-2.8,1.5-3.8c1.2-1.2,1.9-1.5,2.3-1.5s.4,0,.5.1c0,0,.1.1.1.7s0,.4,0,.8l-.2,1.9.9-1.7c.3-.5.4-1,.4-1.5s-.2-1-.5-1.3c-.3-.3-.8-.5-1.4-.5-1,0-1.8.3-2.4.8-.4.3-.8.7-1.2,1.1v-4.3h2.4c.9,0,1.8.2,2.6.7.8.7,1.6,1.4,2.4,2.1l1,.9-.4-1.3c-.1-.5-.4-1.1-.8-1.8-.4-.6-.6-1.2-.6-1.6v-.4h-6.6v-.8l-.8.8c-2.6,0-4.3.5-5.4,1.3-1.1.9-1.7,2.2-1.7,3.9s.3,2.6.9,3.5c.6,1,1.8,1.5,3.3,1.5h.7v1c0,.5-.3.9-.9,1.3l-2.1,1.1h12.5v-.2c.4-.6.6-1.2.9-1.9.3-.7.5-1.4.6-2l.2-2.2-1,2c-.5,1-1.2,1.8-2,2.3h0ZM246.1,120.2c-.2.4-.2,1-.2,1.6v5l-.5-.3c-1-.5-1.7-1.2-2.1-1.8-.4-.6-.6-1.6-.6-2.9s.3-2.1,1-2.6c.6-.5,1.8-.7,3.3-.8-.4.9-.7,1.5-.9,1.8h0Z"></path><path class="st0" d="M139.3,238.5c-1.8-.4-3.7-.9-5.6-1.3-1.7-.4-2.6-1.1-2.6-2.2s.2-1.1.7-1.5c.5-.4,1.2-.6,2.3-.6,1.5,0,2.7.2,3.7.7,1,.5,2,1.3,3.1,2.5l1,1.1-.4-1.5c0-.2-.2-.5-.9-1.8-.6-1.1-.7-1.7-.7-1.9v-.4h-6.5c-1.1,0-2,.4-2.8,1.2-.8.8-1.2,1.8-1.2,2.9s.5,2.4,1.6,3.2l-1.8,1c-.5.3-.9.7-1,1.2-.1.5-.2,1-.2,1.7,0,1.6.4,2.9,1.3,3.8.8.9,1.8,1.4,3,1.7,1.1.2,2.3.4,3.6.4,2.4,0,4.1-.6,5.2-1.7,1-1.1,1.6-2.5,1.6-4.1s-1.1-3.6-3.3-4.4h0ZM139.9,246c-.6.5-1.6.7-2.9.7-2.2,0-4.1-.4-5.5-1.4-1.4-.9-2.1-1.9-2.1-3.3s0-.7,0-.9c0-.2.1-.4.3-.6l1.4-1.6c.4.3,1,.6,1.6.8l5.4,1.2c1.8.5,2.6,1.5,2.6,2.9s-.3,1.6-.9,2.1h0Z"></path></g></g></svg>