<?xml version="1.0" standalone="no"?>
<!DOCTYPE svg PUBLIC "-//W3C//DTD SVG 20010904//EN"
 "http://www.w3.org/TR/2001/REC-SVG-20010904/DTD/svg10.dtd">
<svg version="1.0" xmlns="http://www.w3.org/2000/svg"
 width="512.000000pt" height="512.000000pt" viewBox="0 0 512.000000 512.000000"
 preserveAspectRatio="xMidYMid meet">

<g transform="translate(0.000000,512.000000) scale(0.100000,-0.100000)"
fill="currentColor" stroke="none">
<path d="M2185 5114 c-318 -37 -540 -101 -783 -229 -497 -262 -868 -727 -1011
-1267 -128 -481 -79 -976 139 -1416 77 -155 176 -309 211 -328 45 -25 88 -17
126 21 34 34 35 38 30 85 l-6 50 292 0 c262 0 294 2 313 18 52 42 58 106 15
154 l-29 33 -366 3 -366 3 -41 81 c-79 156 -149 407 -165 591 l-7 77 370 0
371 0 7 -85 c8 -96 25 -127 79 -145 27 -9 42 -8 69 4 50 20 67 59 67 151 l0
75 375 0 c369 0 374 0 385 -21 7 -11 27 -27 47 -35 43 -18 93 -5 122 32 l19
24 373 -2 372 -3 -2 -85 c-1 -47 -6 -125 -12 -175 -24 -229 -25 -208 7 -244
21 -23 41 -34 71 -38 38 -5 46 -2 76 28 30 30 35 44 45 114 12 78 32 322 32
378 l0 27 368 0 c203 0 371 -2 373 -5 3 -2 2 -39 -2 -82 -10 -98 4 -137 58
-160 33 -13 43 -14 77 -2 68 24 78 58 84 277 3 114 0 228 -7 292 -109 959
-859 1701 -1820 1799 -96 10 -287 12 -356 5z m55 -589 l0 -365 -289 0 -289 0
28 74 c102 263 264 496 410 588 43 27 117 63 138 67 1 1 2 -163 2 -364z m315
322 c78 -41 204 -167 278 -278 58 -87 138 -248 176 -351 l21 -58 -290 0 -290
0 0 366 0 365 23 -6 c12 -4 49 -21 82 -38z m-818 -84 c-106 -144 -210 -343
-268 -510 l-32 -93 -273 0 c-151 0 -274 3 -274 6 0 14 126 157 207 235 124
119 278 230 423 304 59 30 229 103 243 104 5 1 -7 -20 -26 -46z m1255 23 c286
-107 578 -323 782 -578 l38 -48 -278 0 -279 0 -34 97 c-63 182 -159 366 -258
496 -24 31 -42 57 -39 57 3 0 34 -11 68 -24z m-1625 -873 c-3 -21 -17 -101
-31 -178 -14 -77 -30 -205 -36 -285 -6 -80 -14 -169 -16 -197 l-5 -53 -370 0
-369 0 0 23 c0 12 7 68 15 124 27 190 87 389 164 541 l31 62 311 0 312 0 -6
-37z m873 -338 l0 -375 -370 0 -370 0 0 65 c0 146 48 487 89 643 l12 42 319 0
320 0 0 -375z m860 351 c29 -78 78 -407 95 -643 l5 -83 -375 0 -375 0 0 368
c0 203 3 372 7 375 3 4 147 7 320 7 l313 0 10 -24z m887 -66 c79 -162 145
-402 159 -577 l7 -83 -370 0 -370 0 -12 168 c-12 168 -36 353 -66 490 -8 40
-15 78 -15 83 0 6 120 8 313 7 l312 -3 42 -85z"/>
<path d="M1817 2751 c-138 -52 -177 -80 -208 -146 -38 -82 -16 -177 57 -247
22 -20 165 -140 319 -268 154 -127 281 -235 283 -239 3 -10 -879 -331 -909
-331 -13 0 -116 28 -229 62 -261 78 -298 80 -453 23 -59 -22 -124 -53 -144
-69 -46 -38 -73 -98 -73 -161 0 -91 21 -119 225 -297 211 -184 266 -225 380
-279 141 -67 226 -84 410 -84 123 0 175 5 224 18 36 10 244 84 464 163 220 80
402 143 405 140 3 -3 -27 -185 -67 -403 -39 -219 -71 -414 -71 -433 1 -105
104 -200 217 -200 38 0 242 72 299 105 51 30 101 86 125 139 10 23 106 286
213 585 108 299 197 545 199 547 2 2 253 94 558 205 305 110 576 212 602 227
52 28 91 71 128 142 34 65 33 194 -1 265 -38 80 -152 186 -252 233 -108 52
-172 67 -288 66 -117 0 -119 -1 -636 -189 -219 -80 -404 -145 -411 -145 -6 0
-240 133 -519 296 -279 163 -525 302 -547 310 -78 28 -159 18 -300 -35z m666
-416 c235 -137 427 -252 427 -255 0 -6 -379 -143 -395 -143 -16 0 -706 575
-699 582 15 16 183 70 209 68 18 -1 204 -104 458 -252z m1882 -51 c65 -21 149
-77 189 -127 40 -50 41 -107 2 -145 -19 -20 -146 -70 -499 -198 -259 -95 -473
-171 -475 -169 -2 2 2 21 8 42 33 109 -96 188 -172 105 -18 -19 -100 -237
-282 -742 -141 -393 -263 -724 -271 -736 -13 -20 -127 -72 -197 -89 -22 -6
-26 -4 -22 12 23 99 214 1188 214 1221 0 71 -62 116 -132 96 -48 -14 -69 -52
-89 -160 -10 -54 -22 -101 -26 -104 -11 -10 -898 -330 -958 -347 -180 -49
-401 -14 -571 88 -42 26 -334 267 -402 333 -10 10 4 18 69 41 45 15 93 27 108
27 14 -1 118 -29 231 -62 284 -85 267 -86 595 33 983 359 2433 886 2450 890
47 11 181 6 230 -9z"/>
</g>
</svg>
