<svg id="visual" viewBox="0 0 900 600" width="900" height="600" xmlns="http://www.w3.org/2000/svg" xmlns:xlink="http://www.w3.org/1999/xlink" version="1.1"><rect x="0" y="0" width="900" height="600" fill="#002233"></rect><path d="M0 193L21.5 182.2C43 171.3 86 149.7 128.8 148.5C171.7 147.3 214.3 166.7 257.2 163C300 159.3 343 132.7 385.8 121.3C428.7 110 471.3 114 514.2 123.5C557 133 600 148 642.8 162.8C685.7 177.7 728.3 192.3 771.2 185C814 177.7 857 148.3 878.5 133.7L900 119L900 0L878.5 0C857 0 814 0 771.2 0C728.3 0 685.7 0 642.8 0C600 0 557 0 514.2 0C471.3 0 428.7 0 385.8 0C343 0 300 0 257.2 0C214.3 0 171.7 0 128.8 0C86 0 43 0 21.5 0L0 0Z" fill="#6C7563" stroke-linecap="round" stroke-linejoin="miter"></path></svg>