<svg xmlns="http://www.w3.org/2000/svg" id="Capa_2" viewBox="0 0 257.3 248.7"><defs><style> .st0 { fill: #0D0D0D; } </style></defs><g id="objects"><path class="st0" d="M236.6,122.1l-33.2-5.3-.4-.2c-.7-8-2.7-15.6-5.9-22.6-9.8-22.9-33.7-39.7-58-41.3h-.1c0-.1-5.3-33.2-5.3-33.2,0-.4-.3-.6-.7-.7-.2,0-.5.1-.5.4l-5.3,33.2-.2.4c-7.8.7-15.2,2.6-22,5.6-23.1,9.6-40.2,33.8-41.9,58.3l-.2.2-33.4,5.4-.3.3c-.2.3,0,.7.3.8l33.2,5.3.4.2c.7,7.8,2.6,15.1,5.5,22,9.7,23.1,33.8,40.2,58.4,41.9h.1c0,.1,5.4,33.5,5.4,33.5l.3.3c.3.2.7,0,.8-.3l5.3-33.2.2-.4c8.1-.7,15.6-2.7,22.6-5.8,22.9-9.8,39.7-33.7,41.3-58.1h.1c0-.1,33.4-5.6,33.4-5.6l.3-.3c.2-.3,0-.7-.3-.8h0ZM85.9,73.9c11.6-11,25.2-17.2,40.7-18.7l-.7,4.3c-9.5,1.2-18.3,4.2-26.3,9.2l9.2,6.1-8,5-1.4-10.8-.2-.2c-3.3,2.1-6.4,4.5-9.4,7.3-1.3-.7-2.6-1.4-3.9-2.2v-.2h0ZM96.4,96.1l.4.4,7.7,13.3-15.5,2.6c1.3-5.9,3.8-11.4,7.4-16.3h0ZM86.2,112.9l-4.7.8c.3-2.9,1.2-5.7,2.1-8.5,2-5.7,5.1-10.9,8.9-15.8l2.6,4.3c-4.4,5.8-7.4,12.2-8.8,19.2ZM87.5,78l29.8,29.8c-3.6.7-7.5,1.2-11.2,1.9l-.3-.3s-18.3-31.4-18.3-31.4ZM106.6,86.2h0c4.9-3.8,10.4-6.2,16.3-7.6l-2.6,15.6-13.7-8ZM104.1,84.6h-.2c-1.4-.8-2.8-1.6-4.1-2.5,7.2-5.8,15.3-9.6,24.3-11.1l-.8,4.7h-.1c-6.9,1.6-13.3,4.5-19,8.8h0ZM70.7,96.1c3.2-7.4,7.7-14.3,13.6-20.5h.2c.6,1.3,1.5,2.6,2.2,3.9-2.8,3-5.2,6.1-7.3,9.4l.2.2,10.8,1.3-5,8.1-6.1-9.2c-5.1,7.8-8.1,16.7-9.2,26.2-1.4.4-2.9.5-4.3.8.4-7.1,2.3-13.9,5-20.2h0ZM84.3,169.9c-11-11.6-17.2-25.2-18.7-40.7l4.3.7c1.2,9.6,4.2,18.3,9.2,26.3l6.1-9.2,5,8-10.8,1.4h-.2c2,3.4,4.5,6.6,7.3,9.6-.7,1.3-1.4,2.6-2.2,3.9h-.2,0ZM106.5,159.4l.5-.4,13.3-7.8,2.6,15.6c-5.9-1.4-11.3-3.8-16.3-7.4ZM123.3,169.6l.8,4.7c-2.8-.3-5.7-1.2-8.4-2.1-5.7-2-10.9-5.1-15.8-8.9l4.3-2.6c5.8,4.4,12.2,7.4,19.2,8.8ZM119.8,150l-31.3,18.3,29.8-29.8c.7,3.6,1.2,7.5,1.9,11.2,0,0-.3.3-.3.3ZM96.5,149.2h0c-3.7-4.8-6.1-10.3-7.5-16.3l15.6,2.6-8,13.7h0ZM95,151.6v.2c-.9,1.3-1.6,2.7-2.4,4.1-5.9-7.1-9.6-15.3-11.2-24.3l4.7.8h.2c1.5,7.1,4.3,13.4,8.7,19.2h0ZM106.4,185.1c-7.4-3.2-14.2-7.6-20.5-13.6h0c1.3-.8,2.6-1.7,3.9-2.3,3,2.8,6.1,5.2,9.4,7.3h.2c0-.1,1.3-10.9,1.3-10.9l8.1,5-9.2,6.1c7.8,5.1,16.6,8.1,26.2,9.2.4,1.4.5,2.9.8,4.3-7.1-.4-13.9-2.3-20.2-5h0ZM118.6,136.3h-1c0,0-79.5-13-79.5-13h93.4l-12.9,13ZM132.4,121.1l-12.9-12.9v-1.1c0,0,12.9-79.5,12.9-79.5v93.4h0ZM181.8,75.5c11,11.6,17.2,25.2,18.7,40.7l-4.3-.7c-1.2-9.6-4.2-18.3-9.2-26.3l-6.1,9.2-5-8,10.8-1.4.2-.2c-2.1-3.3-4.5-6.4-7.3-9.4.7-1.3,1.4-2.6,2.2-3.9h.2,0ZM159.6,86l-.4.4-13.3,7.7-2.6-15.5c5.9,1.3,11.4,3.8,16.3,7.4ZM142.8,75.8l-.8-4.8c9,1.5,17,5.2,24.2,11.1-1.2.9-2.8,1.7-4.2,2.6-5.8-4.4-12.2-7.4-19.2-8.8h0ZM146.4,95.4l31.3-18.3-29.7,29.8c-.7-3.6-1.2-7.5-1.9-11.2l.3-.3ZM169.6,96.1c3.7,4.9,6.1,10.4,7.5,16.3l-15.6-2.6s8.1-13.8,8.1-13.8ZM171.1,93.7v-.2l2.5-4.1c5.7,7.2,9.6,15.3,11.1,24.3l-4.7-.8v-.2c-1.6-6.9-4.5-13.3-8.8-19h0ZM180.2,73.9v.2c-1.3.8-2.6,1.5-3.9,2.2-3-2.8-6.1-5.2-9.4-7.3l-.2.2-1.4,10.8-8.1-5,9.2-6.1c-7.8-5.1-16.6-8.1-26.2-9.2-.4-1.4-.5-2.9-.8-4.4,15.5,1.6,29.1,7.7,40.7,18.7h0ZM133.7,217.7v-93.4l12.9,12.9v1c0,0-12.9,79.5-12.9,79.5h0ZM169.7,149.3l-.4-.5-7.7-13.3,15.3-2.6h.2c-1.4,5.9-3.8,11.3-7.4,16.3ZM179.9,132.5c1.6-.1,3.1-.6,4.8-.8-1.5,9-5.3,17-11.1,24.3l-2.6-4.3c4.4-5.8,7.4-12.2,8.8-19.2h0ZM178.6,167.3l-29.8-29.8c3.6-.7,7.5-1.2,11.3-1.9l18.5,31.6h0ZM166.3,163.2c-7.2,5.8-15.2,9.6-24.3,11.1l.8-4.7.2-.2c7-1.5,13.3-4.4,19.1-8.8,1.4.9,2.9,1.6,4.3,2.6h0ZM159.5,159.2h0c-4.9,3.8-10.4,6.2-16.3,7.6l2.6-15.6,13.7,8h0ZM180.2,171.4c-11.6,11-25.1,17.2-40.7,18.7l.7-4.4c9.5-1.1,18.3-4.2,26.3-9.2l-9.2-6.1,8-5,1.4,10.8h.2c3.3-1.9,6.4-4.3,9.4-7.1,1.4.6,2.6,1.5,3.9,2.2h0c0,.1,0,.2,0,.2ZM181.8,169.9h-.2c-.8-1.3-1.5-2.6-2.2-3.9,2.8-3,5.2-6.1,7.3-9.4h-.2c0-.1-10.8-1.5-10.8-1.5l5-8.1,6.1,9.2c5.1-7.8,8.1-16.6,9.2-26.2,1.4-.4,2.9-.5,4.4-.8-1.6,15.5-7.7,29.1-18.7,40.7h0ZM134.7,122.1l12.9-12.9h1c0,0,79.5,13,79.5,13h-93.4,0Z"></path></g></svg>
