<svg id="visual" viewBox="0 0 900 600" width="900" height="600" xmlns="http://www.w3.org/2000/svg" xmlns:xlink="http://www.w3.org/1999/xlink" version="1.1"><rect x="0" y="0" width="900" height="600" fill="#002233"></rect><path d="M0 439L21.5 440.2C43 441.3 86 443.7 128.8 433.7C171.7 423.7 214.3 401.3 257.2 390.8C300 380.3 343 381.7 385.8 404.7C428.7 427.7 471.3 472.3 514.2 480.5C557 488.7 600 460.3 642.8 440.7C685.7 421 728.3 410 771.2 408C814 406 857 413 878.5 416.5L900 420L900 601L878.5 601C857 601 814 601 771.2 601C728.3 601 685.7 601 642.8 601C600 601 557 601 514.2 601C471.3 601 428.7 601 385.8 601C343 601 300 601 257.2 601C214.3 601 171.7 601 128.8 601C86 601 43 601 21.5 601L0 601Z" fill="#6C7563" stroke-linecap="round" stroke-linejoin="miter"></path></svg>